<svg xmlns="http://www.w3.org/2000/svg" xmlns:xlink="http://www.w3.org/1999/xlink" width="48" height="48" version="1.1" viewBox="0 0 48 48"><title>icon-list-num-upper-roman</title><desc>Created with Sketch.</desc><g fill="none" fill-rule="evenodd" stroke="none" stroke-width="1"><rect width="22" height="4" x="18" y="12" fill="#000" opacity=".2"/><rect width="22" height="4" x="18" y="22" fill="#000" opacity=".2"/><rect width="22" height="4" x="18" y="32" fill="#000" opacity=".2"/><path fill="#000" d="M15.1455078,17 L15.1455078,15.7651367 L16.3803711,15.7651367 L16.3803711,17 L15.1455078,17 Z M15.1455078,27 L15.1455078,25.7651367 L16.3803711,25.7651367 L16.3803711,27 L15.1455078,27 Z M15.1455078,37 L15.1455078,35.7651367 L16.3803711,35.7651367 L16.3803711,37 L15.1455078,37 Z"/><rect width="1.5" height="7" x="12" y="20" fill="#000" fill-rule="nonzero"/><rect width="1.5" height="7" x="12" y="30" fill="#000" fill-rule="nonzero"/><rect width="1.5" height="7" x="9" y="20" fill="#000" fill-rule="nonzero"/><rect width="1.5" height="7" x="9" y="30" fill="#000" fill-rule="nonzero"/><rect width="1.5" height="7" x="6" y="30" fill="#000" fill-rule="nonzero"/><rect width="1.5" height="7" x="12" y="10" fill="#000" fill-rule="nonzero"/></g></svg>