<svg xmlns="http://www.w3.org/2000/svg" xmlns:xlink="http://www.w3.org/1999/xlink" width="48" height="48" version="1.1" viewBox="0 0 48 48"><title>icon-list-num-lower-roman</title><desc>Created with Sketch.</desc><g fill="none" fill-rule="evenodd" stroke="none" stroke-width="1"><rect width="22" height="4" x="18" y="12" fill="#000" opacity=".2"/><rect width="22" height="4" x="18" y="22" fill="#000" opacity=".2"/><rect width="22" height="4" x="18" y="32" fill="#000" opacity=".2"/><path fill="#000" d="M15.1455078,16 L15.1455078,14.7651367 L16.3803711,14.7651367 L16.3803711,16 L15.1455078,16 Z M15.1455078,26 L15.1455078,24.7651367 L16.3803711,24.7651367 L16.3803711,26 L15.1455078,26 Z M15.1455078,36 L15.1455078,34.7651367 L16.3803711,34.7651367 L16.3803711,36 L15.1455078,36 Z"/><rect width="1.5" height="5" x="12" y="21" fill="#000" fill-rule="nonzero"/><rect width="1.5" height="5" x="12" y="31" fill="#000" fill-rule="nonzero"/><rect width="1.5" height="5" x="9" y="21" fill="#000" fill-rule="nonzero"/><rect width="1.5" height="5" x="9" y="31" fill="#000" fill-rule="nonzero"/><rect width="1.5" height="5" x="6" y="31" fill="#000" fill-rule="nonzero"/><rect width="1.5" height="5" x="12" y="11" fill="#000" fill-rule="nonzero"/><rect width="1.5" height="1" x="12" y="19" fill="#000" fill-rule="nonzero"/><rect width="1.5" height="1" x="12" y="29" fill="#000" fill-rule="nonzero"/><rect width="1.5" height="1" x="9" y="19" fill="#000" fill-rule="nonzero"/><rect width="1.5" height="1" x="9" y="29" fill="#000" fill-rule="nonzero"/><rect width="1.5" height="1" x="6" y="29" fill="#000" fill-rule="nonzero"/><rect width="1.5" height="1" x="12" y="9" fill="#000" fill-rule="nonzero"/></g></svg>